#!OML:ASF F:\VICON\USERDATA\Patient Classification 1\PLAYGROUND\JustinFriday\JustinFriday.ASF
:FULLY-SPECIFIED
:DEGREES
2396
root -25.3696 17.4606 -1.37548 188.519 17.5742 -173.343
lowerback 16.184 2.60662 9.31904
upperback 4.01854 6.40014 6.63551
thorax -4.56748 3.50232 0.535765
lowerneck 2.10089 -14.1029 -9.95819
upperneck 8.31924 -19.4703 12.6759
head 4.38181 -9.48122 4.46697
rclavicle -9.54166e-015 -1.11319e-013
rhumerus 6.33773 -32.2336 -50.4373
rradius 37.8819
rwrist 17.7501
rhand -26.8186 -384.536
rfingers 7.12502
rthumb -0.244866 -414.515
lclavicle -9.54166e-015 -1.11319e-013
lhumerus -39.7115 5.8791 73.6633
lradius 63.1659
lwrist -16.7838
lhand -29.5169 -11.9495
lfingers 7.12502
lthumb -2.85095 18.0112
rfemur -7.24875 5.16488 33.4751
rtibia 29.7055
rfoot -13.4357 17.8861
rtoes 36.3465
lfemur -30.7445 -5.77715 -0.402549
ltibia 20.6139
lfoot -13.2287 -5.72047
ltoes -11.3019
2397
root -25.3921 17.4578 -1.5015 188.56 18.9066 -173.544
lowerback 16.5357 2.80337 9.81355
upperback 4.42594 6.63879 5.79814
thorax -4.14155 3.61764 -0.660161
lowerneck -0.144642 -14.3537 -7.64914
upperneck 9.20682 -19.7484 11.8772
head 4.74274 -9.46102 3.71033
rclavicle -7.95139e-015 -1.59028e-015
rhumerus 6.81055 -32.9333 -51.6952
rradius 38.2167
rwrist 18.031
rhand -26.0451 -383.269
rfingers 7.12502
rthumb 0.502234 -413.248
lclavicle -7.95139e-015 -1.59028e-015
lhumerus -38.7062 4.61105 73.3959
lradius 64.3965
lwrist -12.143
lhand -27.2468 -11.2534
lfingers 7.12502
lthumb -0.658426 18.7254
rfemur -7.00391 6.03934 32.8221
rtibia 30.0131
rfoot -13.0302 18.8994
rtoes 37.5761
lfemur -30.3449 -7.15709 -0.136174
ltibia 20.5284
lfoot -12.1543 -4.52727
ltoes -8.95568
2398
root -25.4093 17.4449 -1.61248 188.817 20.2522 -173.617
lowerback 16.2752 2.70621 9.30302
upperback 4.29316 6.38103 5.95221
thorax -4.23442 3.47579 -0.163045
lowerneck 0.171648 -13.7073 -8.17477
upperneck 10.2317 -18.8454 11.2445
head 4.90079 -9.02413 3.6796
rclavicle 1.11319e-014 -3.33958e-014
rhumerus 7.09691 -30.4058 -51.7563
rradius 38.6218
rwrist 17.3856
rhand -25.4456 -382.576
rfingers 7.12502
rthumb 1.08119 -412.553
lclavicle 1.11319e-014 -3.33958e-014
lhumerus -39.611 5.28078 73.5844
lradius 64.7028
lwrist -7.96559
lhand -24.8172 -10.8189
lfingers 7.12502
lthumb 1.68815 19.1541
rfemur -6.9594 7.09158 32.399
rtibia 30.349
rfoot -13.3164 19.1075
rtoes 37.5161
lfemur -30.0281 -7.13707 -0.165114
ltibia 20.362
lfoot -10.3699 -4.41653
ltoes -6.35375
2399
root -25.4223 17.4313 -1.71971 188.878 21.2238 -173.905
lowerback 16.3739 2.68662 8.56597
upperback 4.14103 6.2568 6.16894
thorax -4.5606 3.39747 0.472194
lowerneck 0.208539 -13.1755 -8.55386
upperneck 10.9708 -18.0962 10.8451
head 5.04322 -8.65467 3.66939
rclavicle 2.22639e-014 4.77083e-015
rhumerus 7.15273 -28.051 -51.2213
rradius 39.0416
rwrist 16.3306
rhand -25.454 -383.673
rfingers 7.12502
rthumb 1.07305 -413.65
lclavicle 2.22639e-014 4.77083e-015
lhumerus -40.1632 5.54126 74.2013
lradius 63.1904
lwrist -8.25186
lhand -26.0956 -12.9006
lfingers 7.12502
lthumb 0.453402 17.0786
rfemur -6.82375 7.52835 31.8806
rtibia 30.7784
rfoot -14.239 18.6035
rtoes 35.7835
lfemur -29.6489 -6.00876 -0.968491
ltibia 20.4854
lfoot -8.41203 -6.02579
ltoes -4.75798
2400
root -25.4373 17.4229 -1.83497 188.945 22.3856 -174.035
lowerback 16.1096 2.46428 7.70566
upperback 5.0905 5.78551 6.27563
thorax -3.51973 3.2575 1.19842
lowerneck -2.38589 -12.6873 -7.57095
upperneck 11.4948 -17.3858 9.99494
head 5.40091 -8.2339 3.15812
rclavicle 4.77083e-014 8.5875e-014
rhumerus 10.154 -26.9957 -52.7628
rradius 38.7826
rwrist 16.0124
rhand -25.6229 -384.486
rfingers 7.12502
rthumb 0.909996 -414.464
lclavicle 4.77083e-014 8.5875e-014
lhumerus -38.9566 6.73354 74.6226
lradius 62.3347
lwrist -8.33502
lhand -26.9999 -14.2227
lfingers 7.12502
lthumb -0.419945 15.7567
rfemur -6.66243 8.05863 31.4462
rtibia 31.1736
rfoot -14.6765 18.7266
rtoes 34.0099
lfemur -29.1793 -5.26007 -1.46267
ltibia 20.8231
lfoot -6.58726 -7.48178
ltoes -0.275339
2401
root -25.4503 17.4181 -1.96334 189.157 23.5551 -173.719
lowerback 16.5143 2.42932 7.64287
upperback 4.87727 5.78274 6.36102
thorax -3.97938 3.22923 1.28737
lowerneck -3.43317 -12.6184 -7.63499
upperneck 12.7201 -17.2664 9.58397
head 5.91696 -8.12077 2.95823
rclavicle -6.04305e-014 -6.52014e-014
rhumerus 10.3653 -25.526 -52.8049
rradius 38.7258
rwrist 15.8794
rhand -24.4448 -381.683
rfingers 7.12502
rthumb 2.04783 -411.653
lclavicle -6.04305e-014 -6.52014e-014
lhumerus -39.5379 6.36499 75.056
lradius 62.6344
lwrist -4.73971
lhand -25.1801 -13.7206
lfingers 7.12502
lthumb 1.33762 16.255
rfemur -6.38343 8.70466 31.4118
rtibia 31.505
rfoot -14.9782 19.1204
rtoes 33.0465
lfemur -28.7762 -5.14522 -1.2951
ltibia 21.361
lfoot -3.31871 -8.69196
ltoes 17.8078
2402
root -25.4607 17.4075 -2.08978 189.386 24.6121 -173.484
lowerback 15.5977 2.36492 7.81275
upperback 5.52782 5.58477 6.27458
thorax -2.77428 3.19765 1.22899
lowerneck -4.57328 -12.2438 -6.97327
upperneck 13.0685 -16.8045 9.52271
head 6.1153 -7.82516 2.81449
rclavicle 2.06736e-014 7.15625e-014
rhumerus 11.6331 -24.8658 -53.5111
rradius 38.9509
rwrist 15.724
rhand -23.2964 -381.506
rfingers 7.12502
rthumb 3.15688 -411.463
lclavicle 2.06736e-014 7.15625e-014
lhumerus -38.6273 6.15526 75.5397
lradius 63.201
lwrist 0.549699
lhand -22.0534 -10.7263
lfingers 7.12502
lthumb 4.35723 19.2088
rfemur -6.11981 9.19889 31.2962
rtibia 31.7004
rfoot -15.2477 19.289
rtoes 31.9538
lfemur -28.4978 -4.40174 -1.55684
ltibia 21.888
lfoot -3.59931 -7.90103
ltoes 15.1207
2403
root -25.4761 17.3995 -2.2042 189.152 26.0226 -173.801
lowerback 15.9102 2.54454 7.32588
upperback 5.6584 5.73863 6.0893
thorax -2.82381 3.26208 1.25927
lowerneck -4.57955 -12.2595 -7.64746
upperneck 13.4861 -16.9073 10.4287
head 6.39765 -7.82243 3.16445
rclavicle 4.53229e-014 7.15625e-014
rhumerus 11.798 -23.8913 -53.4664
rradius 39.1748
rwrist 15.2854
rhand -22.8718 -382.023
rfingers 7.12502
rthumb 3.56689 -411.973
lclavicle 4.53229e-014 7.15625e-014
lhumerus -38.3593 5.26261 76.2009
lradius 61.8803
lwrist 2.57394
lhand -21.6151 -10.6076
lfingers 7.12502
lthumb 4.78047 19.3185
rfemur -5.71332 10.0036 30.6376
rtibia 31.9076
rfoot -15.1317 19.244
rtoes 30.8993
lfemur -27.9795 -3.15447 -2.54632
ltibia 22.5157
lfoot -4.66032 -6.75936
ltoes 2.97983
2404
root -25.4848 17.4319 -2.35137 188.202 27.3192 -175.218
lowerback 16.8527 2.8197 6.19921
upperback 5.2111 5.91142 5.58619
thorax -3.85101 3.26025 1.2311
lowerneck -4.74066 -12.3907 -7.59362
upperneck 14.8049 -17.0929 10.2036
head 6.83887 -7.84467 3.03573
rclavicle -7.15625e-015 3.49861e-014
rhumerus 10.512 -22.3655 -52.7505
rradius 39.7305
rwrist 14.5666
rhand -22.5297 -382.849
rfingers 7.12502
rthumb 3.89731 -412.793
lclavicle -7.15625e-015 3.49861e-014
lhumerus -38.0995 3.15802 76.994
lradius 58.9422
lwrist 5.54508
lhand -21.1257 -10.2498
lfingers 7.12502
lthumb 5.25295 19.6651
rfemur -4.97818 10.4275 28.8432
rtibia 32.2793
rfoot -15.1166 19.6725
rtoes 30.6289
lfemur -27.0559 -3.0293 -4.35062
ltibia 23.0532
lfoot -4.30238 -5.73439
ltoes 4.00952
